<mxfile host="app.diagrams.net" modified="2023-04-02T17:11:13.565Z" agent="Mozilla/5.0 (Windows NT 10.0; Win64; x64) AppleWebKit/537.36 (KHTML, like Gecko) Chrome/111.0.0.0 Safari/537.36 Edg/111.0.1661.62" etag="6P1vKpUuekJXaFsXLatW" version="21.1.2" type="device">
  <diagram name="Страница 1" id="aFMWTvks89fq2DPusPuJ">
    <mxGraphModel dx="792" dy="1138" grid="1" gridSize="10" guides="1" tooltips="1" connect="1" arrows="1" fold="1" page="1" pageScale="1" pageWidth="827" pageHeight="1169" math="0" shadow="0">
      <root>
        <mxCell id="0" />
        <mxCell id="1" parent="0" />
        <mxCell id="6ogoVWHAS1f5B-40C9d9-3" style="edgeStyle=orthogonalEdgeStyle;rounded=0;orthogonalLoop=1;jettySize=auto;html=1;entryX=0.5;entryY=0;entryDx=0;entryDy=0;" edge="1" parent="1" source="6ogoVWHAS1f5B-40C9d9-1" target="6ogoVWHAS1f5B-40C9d9-2">
          <mxGeometry relative="1" as="geometry" />
        </mxCell>
        <mxCell id="6ogoVWHAS1f5B-40C9d9-1" value="Начло&lt;br&gt;saveList" style="ellipse;whiteSpace=wrap;html=1;" vertex="1" parent="1">
          <mxGeometry x="354" y="20" width="120" height="80" as="geometry" />
        </mxCell>
        <mxCell id="6ogoVWHAS1f5B-40C9d9-5" style="edgeStyle=orthogonalEdgeStyle;rounded=0;orthogonalLoop=1;jettySize=auto;html=1;" edge="1" parent="1" source="6ogoVWHAS1f5B-40C9d9-2" target="6ogoVWHAS1f5B-40C9d9-4">
          <mxGeometry relative="1" as="geometry" />
        </mxCell>
        <mxCell id="6ogoVWHAS1f5B-40C9d9-2" value="&lt;div style=&quot;font-size: 14px; line-height: 19px;&quot;&gt;&lt;span style=&quot;background-color: rgb(255, 255, 255);&quot;&gt;file = fopen(&quot;trainData.dat&quot;, &quot;wb&quot;)&lt;/span&gt;&lt;/div&gt;" style="rounded=0;whiteSpace=wrap;html=1;" vertex="1" parent="1">
          <mxGeometry x="307" y="120" width="214" height="60" as="geometry" />
        </mxCell>
        <mxCell id="6ogoVWHAS1f5B-40C9d9-7" style="edgeStyle=orthogonalEdgeStyle;rounded=0;orthogonalLoop=1;jettySize=auto;html=1;" edge="1" parent="1" source="6ogoVWHAS1f5B-40C9d9-4" target="6ogoVWHAS1f5B-40C9d9-6">
          <mxGeometry relative="1" as="geometry" />
        </mxCell>
        <mxCell id="6ogoVWHAS1f5B-40C9d9-4" value="&lt;div style=&quot;font-size: 14px; line-height: 19px;&quot;&gt;&lt;span style=&quot;background-color: rgb(255, 255, 255);&quot;&gt;saveTrain(trainList, file)&lt;/span&gt;&lt;/div&gt;" style="rounded=0;whiteSpace=wrap;html=1;" vertex="1" parent="1">
          <mxGeometry x="337" y="200" width="154" height="60" as="geometry" />
        </mxCell>
        <mxCell id="6ogoVWHAS1f5B-40C9d9-9" style="edgeStyle=orthogonalEdgeStyle;rounded=0;orthogonalLoop=1;jettySize=auto;html=1;entryX=0.5;entryY=0;entryDx=0;entryDy=0;" edge="1" parent="1" source="6ogoVWHAS1f5B-40C9d9-6" target="6ogoVWHAS1f5B-40C9d9-8">
          <mxGeometry relative="1" as="geometry" />
        </mxCell>
        <mxCell id="6ogoVWHAS1f5B-40C9d9-6" value="fclose(file)" style="rounded=0;whiteSpace=wrap;html=1;" vertex="1" parent="1">
          <mxGeometry x="354" y="280" width="120" height="60" as="geometry" />
        </mxCell>
        <mxCell id="6ogoVWHAS1f5B-40C9d9-8" value="Конец" style="ellipse;whiteSpace=wrap;html=1;" vertex="1" parent="1">
          <mxGeometry x="354" y="360" width="120" height="80" as="geometry" />
        </mxCell>
      </root>
    </mxGraphModel>
  </diagram>
</mxfile>
